<svg width="85" height="24" viewBox="0 0 85 24" fill="none" xmlns="http://www.w3.org/2000/svg">
<g clip-path="url(#clip0_22_279)">
<path d="M48.8387 1.91895C48.5269 2.6575 48.323 3.0762 48.0172 3.73334C48.317 3.0762 48.5029 2.6575 48.8387 1.91895Z" fill="black"/>
<path d="M15.394 2.75071C13.6849 1.65743 11.4001 2.01798 10.1407 3.58231C9.56504 4.31505 9.34915 5.25132 9.54105 6.1527C9.69697 7.05408 10.2367 7.85079 11.0283 8.34509C12.6894 9.39186 14.9023 9.04294 16.1376 7.53676C16.7133 6.82728 16.9592 5.92009 16.8213 5.03034C16.7133 4.10569 16.1916 3.26828 15.394 2.75071ZM14.7943 6.68771C14.4885 7.1006 14.0207 7.37393 13.499 7.44371C12.9833 7.53676 12.4495 7.42627 12.0178 7.12968C11.1302 6.48418 10.9503 5.25713 11.616 4.39646C12.2636 3.56486 13.469 3.36714 14.3566 3.94868C14.7823 4.25689 15.0522 4.72794 15.1062 5.23969C15.2081 5.74563 15.0942 6.26901 14.7883 6.68771H14.7943Z" fill="black"/>
<path d="M26.4103 3.93104C26.3444 3.0064 25.8706 2.15735 25.109 1.6049C23.4658 0.424377 21.163 0.680253 19.8317 2.18643C19.214 2.88427 18.9382 3.80892 19.0761 4.72193C19.1841 5.62913 19.6818 6.44909 20.4434 6.98411C22.0386 8.12392 24.2694 7.88549 25.5767 6.44328C26.2064 5.75706 26.5123 4.84405 26.4103 3.93104ZM24.2874 5.51282C23.5858 6.31534 22.3624 6.44328 21.4989 5.80359C20.6473 5.11737 20.5034 3.90778 21.169 3.05292C21.4989 2.64003 21.9906 2.38415 22.5243 2.34345C23.5858 2.20388 24.5573 2.9308 24.7012 3.96012C24.7012 4.00082 24.7132 4.04735 24.7132 4.08805C24.7732 4.59981 24.6232 5.11156 24.2874 5.51282Z" fill="black"/>
<path d="M34.2963 1.05275C33.4867 0.459586 32.4732 0.186264 31.4597 0.29094C30.3503 0.354909 29.7926 0.389802 28.6832 0.471217C28.8451 2.64035 29.013 4.80948 29.1749 6.97861C30.2484 6.90301 30.7821 6.86812 31.8555 6.80996C32.839 6.79833 33.7865 6.42615 34.5062 5.77483C35.1658 5.14677 35.5076 4.26865 35.4417 3.37308C35.4417 2.4717 35.0219 1.61684 34.2963 1.05275ZM33.2168 4.82692C32.809 5.19911 32.2693 5.40846 31.7116 5.40846L30.7521 5.46661C30.6501 3.97206 30.6022 3.2277 30.5062 1.73315L31.4837 1.675C32.0534 1.61103 32.6231 1.76223 33.0789 2.09952C33.8885 2.80318 33.9604 4.01277 33.2288 4.80366C33.2288 4.80366 33.2228 4.81529 33.2168 4.81529V4.82692Z" fill="black"/>
<path d="M41.5465 6.51321C42.5 4.32663 43.5015 2.1575 44.545 0H42.6319C41.8583 1.74461 41.4805 2.59947 40.7429 4.33244C39.9813 2.58784 39.5915 1.75042 38.7939 0.0348922L36.8809 0.0755997C37.9244 2.21565 38.9439 4.36734 39.9333 6.52484L41.5465 6.51321Z" fill="black"/>
<path d="M49.8222 0.151283L48.0171 0.0756836C46.9677 2.21574 45.9542 4.36742 44.9647 6.53655L46.7638 6.57144L47.2735 5.40837C48.4249 5.44326 49.0006 5.46071 50.146 5.51305C50.3199 5.99572 50.4039 6.23415 50.5718 6.72264C51.2795 6.75172 51.6393 6.76917 52.3709 6.80987C51.5733 4.58259 50.7217 2.36694 49.8222 0.151283ZM47.8852 4.03013C47.9332 3.92545 47.9752 3.82659 48.0171 3.73355C48.323 3.07641 48.5269 2.6577 48.8387 1.91915C49.1685 2.78564 49.3245 3.22179 49.6423 4.0941L47.8852 4.03013Z" fill="black"/>
<path d="M59.5851 5.94354C58.2418 5.8156 57.5702 5.75745 56.2269 5.65277C56.3708 3.94887 56.5087 2.25078 56.6467 0.546883C55.957 0.48873 55.6092 0.465468 54.9136 0.418945L54.4458 6.93215C56.1129 7.04264 57.7801 7.1764 59.4472 7.33923C59.4832 6.77514 59.5312 6.50181 59.5851 5.94354Z" fill="black"/>
<path d="M64.3647 1.29684L62.6376 1.09912C62.3857 3.26244 62.1338 5.42575 61.8879 7.58907C63.5491 7.76934 65.2042 7.97288 66.8654 8.19968C66.9493 7.61814 66.9913 7.36808 67.0693 6.80981C65.7319 6.62953 65.0663 6.5423 63.723 6.38528C63.9389 4.6872 64.1488 2.99493 64.3647 1.29684Z" fill="black"/>
<path d="M69.3001 8.5484C71.0452 8.81009 72.7903 9.10086 74.5294 9.41489C74.6314 8.87406 74.6853 8.60074 74.7873 8.0541C73.348 7.79822 72.6284 7.6761 71.1891 7.44348C71.2671 6.96081 71.3091 6.71656 71.393 6.23389C72.7183 6.44324 73.378 6.55373 74.6973 6.81542L74.9372 5.53023C73.6119 5.2918 72.9462 5.18131 71.6149 4.94869C71.6929 4.46602 71.7349 4.22177 71.8188 3.7391C73.2821 3.97171 74.0077 4.09383 75.4709 4.36134C75.5729 3.8147 75.6268 3.54137 75.7288 3.00055C73.9297 2.67489 72.1306 2.37249 70.3316 2.10498C69.9898 4.25085 69.6479 6.40253 69.3001 8.5484Z" fill="black"/>
<path d="M83.1049 4.47761C82.1694 5.44296 81.7077 5.93145 80.7901 6.90843C80.3764 5.6465 80.1605 5.01844 79.7167 3.7565L77.8577 3.39014C78.4574 5.02425 79.0211 6.67582 79.5668 8.32738C79.3869 9.11827 79.3029 9.49045 79.129 10.3104L80.7961 10.6652C80.982 9.86264 81.078 9.46719 81.2579 8.66467C82.4873 7.39692 83.7346 6.14662 85 4.90795L83.1049 4.47761Z" fill="black"/>
<path d="M44.365 12.1655C43.6694 14.6778 44.9168 16.2944 46.5959 16.8178C47.6933 17.1551 47.6873 17.4517 47.3575 18.5624C46.326 21.5864 42.9678 23.2263 39.8494 22.2261C37.4146 21.4468 35.7715 19.237 35.7715 16.7538C35.7715 15.8001 36.0114 14.8639 36.4731 14.0264C35.7355 15.079 35.3397 16.3293 35.3457 17.6029C35.3457 21.1386 38.2962 23.9998 41.9423 23.9998C44.8688 23.9707 47.4415 22.104 48.299 19.3882C48.5569 18.4926 48.5269 17.5389 48.2091 16.6608C47.9752 16.0211 47.5974 15.4396 47.0996 14.9627C47.9332 15.4861 48.5329 16.2944 48.7728 17.2307C50.0081 13.0727 46.1401 13.6426 44.365 12.1655Z" fill="black"/>
<path d="M44.2271 21.3131C44.6649 21.0863 45.0667 20.8072 45.4265 20.4757C44.9947 20.2838 44.5689 20.1093 44.1371 19.9407C43.7054 19.772 43.2436 19.615 42.7998 19.4755L41.8583 19.1789L41.4925 19.0858C39.8734 18.6322 38.2242 18.2833 36.5571 18.0391C36.5571 18.0914 36.5571 18.1379 36.599 18.1903C39.2857 18.8532 41.8583 19.9058 44.2271 21.3131Z" fill="black"/>
<path d="M42.0502 19.2429C43.4655 19.208 44.8867 19.2662 46.296 19.4058C46.386 19.2662 46.4639 19.1208 46.5359 18.9696C44.8508 18.9056 43.1596 18.9463 41.4745 19.0801L41.8223 19.179L42.0502 19.2429Z" fill="black"/>
<path d="M44.1311 19.9524C44.6229 20.0106 45.1566 20.092 45.6963 20.1967C45.8343 20.0571 45.9542 19.9001 46.0681 19.7431C45.0547 19.621 43.8493 19.4988 42.7878 19.4756C43.2316 19.6152 43.6754 19.7722 44.1252 19.9408V19.9524H44.1311Z" fill="black"/>
<path d="M46.6918 18.6208C46.7698 18.4173 46.8358 18.2137 46.8897 18.0044C44.7668 18.0916 42.6619 18.3708 40.593 18.8418L40.8748 18.9174C42.8058 18.6848 44.7488 18.5859 46.6918 18.6208Z" fill="black"/>
<path d="M43.3695 21.6738C41.3486 20.3886 39.1417 19.4058 36.8149 18.7661C36.8629 18.8824 36.9169 18.9929 36.9769 19.1034C38.8119 19.7954 40.533 20.7317 42.0922 21.8948C42.524 21.8715 42.9558 21.7959 43.3695 21.6738Z" fill="black"/>
<path d="M40.497 21.7842C39.6035 21.1096 38.65 20.528 37.6365 20.0396C38.3681 20.906 39.3756 21.5225 40.497 21.7842Z" fill="black"/>
<path d="M20.1856 18.1034C20.0356 18.0627 19.8917 18.0045 19.7598 17.9289C19.6878 17.8824 19.6398 17.8068 19.6398 17.7196C19.6398 17.6265 19.6818 17.5393 19.7538 17.487C19.8557 17.423 19.9697 17.3939 20.0896 17.3997C20.1856 17.3997 20.2755 17.4114 20.3655 17.4346C20.4374 17.4463 20.5034 17.4695 20.5694 17.5044L20.6353 17.8533H21.0311V17.3358C20.9112 17.2311 20.7673 17.1497 20.6113 17.0973C20.4314 17.0392 20.2455 17.0101 20.0596 17.0101C19.8198 17.0043 19.5799 17.0741 19.382 17.2078C19.2141 17.3241 19.1121 17.5102 19.1121 17.7138C19.1001 17.9057 19.1901 18.0918 19.352 18.2081C19.5679 18.3476 19.8078 18.4523 20.0596 18.5163C20.1916 18.5512 20.3175 18.6093 20.4314 18.6849C20.5034 18.7431 20.5394 18.8303 20.5394 18.9175C20.5394 19.0106 20.5034 19.0978 20.4254 19.1502C20.3295 19.2141 20.2155 19.2432 20.1016 19.2316C19.9997 19.2316 19.8977 19.2199 19.7958 19.1909C19.7178 19.1734 19.6458 19.1385 19.5799 19.092L19.5259 18.7256H19.1181V19.2606C19.2381 19.377 19.382 19.4642 19.5379 19.5223C19.7178 19.5921 19.9097 19.6212 20.1016 19.6212C20.3535 19.6328 20.5993 19.563 20.8032 19.4293C20.9772 19.313 21.0791 19.1211 21.0671 18.9175C21.0731 18.7256 20.9951 18.5395 20.8452 18.4116C20.6533 18.2604 20.4254 18.1557 20.1856 18.1034Z" fill="black"/>
<path d="M22.4224 16.8589H21.8947V17.2427H22.4224V16.8589Z" fill="black"/>
<path d="M22.4164 17.6904H21.6128V17.9986L21.8947 18.051V19.2257L21.6368 19.2722V19.5804H22.6683V19.2722L22.4164 19.2257V17.6904Z" fill="black"/>
<path d="M25.127 18.4057C25.151 18.1964 25.091 17.9928 24.9651 17.8242C24.8451 17.7021 24.6772 17.6381 24.5033 17.6439C24.3894 17.6439 24.2814 17.6672 24.1855 17.7253C24.0895 17.7777 24.0056 17.8533 23.9456 17.9463V17.6788H23.154V17.987L23.4359 18.0394V19.2024L23.184 19.2548V19.5688H24.1735V19.278L23.9576 19.2257V18.2138C23.9936 18.1673 24.0416 18.1266 24.0955 18.0975C24.1555 18.0684 24.2155 18.0568 24.2814 18.0568C24.3714 18.051 24.4553 18.0801 24.5213 18.1382C24.5873 18.2138 24.6173 18.3069 24.6053 18.4057V19.2257L24.3774 19.278V19.5688H25.3789V19.278L25.127 19.2257V18.4057Z" fill="black"/>
<path d="M27.1 18.935C27.1 19.0164 27.076 19.092 27.016 19.1502C26.9561 19.2025 26.8721 19.2316 26.7881 19.2316C26.6682 19.2432 26.5483 19.1793 26.4943 19.0746C26.4283 18.9467 26.4043 18.8071 26.4103 18.6675V18.6152C26.4103 18.4756 26.4343 18.336 26.5003 18.2081C26.5663 18.1034 26.6862 18.0395 26.8121 18.0511C26.8541 18.0453 26.9021 18.0453 26.9441 18.0511C26.98 18.0627 27.01 18.086 27.04 18.1092L27.13 18.4H27.5557V17.8999C27.4718 17.8127 27.3638 17.7429 27.2439 17.708C27.106 17.6615 26.9621 17.6382 26.8181 17.6382C26.5603 17.6208 26.3084 17.7196 26.1285 17.9057C25.9606 18.0976 25.8766 18.3419 25.8886 18.5919V18.6443C25.8766 18.8943 25.9606 19.1386 26.1225 19.3305C26.2964 19.5108 26.5423 19.6096 26.7941 19.598C27.01 19.6154 27.2259 19.5456 27.3938 19.4061C27.5438 19.2898 27.6277 19.1095 27.6157 18.9234L27.1 18.935Z" fill="black"/>
<path d="M29.0909 17.6611C28.8451 17.6495 28.6112 17.7484 28.4553 17.9286C28.2933 18.1205 28.2034 18.3706 28.2154 18.6207V18.6904C28.2034 18.9347 28.2934 19.1789 28.4673 19.3592C28.6412 19.5395 28.887 19.6325 29.1389 19.6209C29.2828 19.6209 29.4268 19.5976 29.5647 19.5569C29.6786 19.522 29.7866 19.4697 29.8825 19.3999L29.7386 19.0859C29.6606 19.1324 29.5767 19.1673 29.4867 19.1964C29.3908 19.2196 29.2948 19.2313 29.1989 19.2313C29.0789 19.2371 28.965 19.1906 28.887 19.1092C28.8091 19.0219 28.7611 18.9173 28.7551 18.8009H29.9185V18.5276C29.9305 18.3008 29.8525 18.074 29.6966 17.9054C29.5407 17.7425 29.3188 17.6495 29.0909 17.6611ZM29.4088 18.452H28.7611C28.7671 18.3473 28.8031 18.2543 28.8631 18.1671C28.917 18.0973 29.001 18.0566 29.0909 18.0566C29.1809 18.0566 29.2708 18.0857 29.3308 18.1554C29.3848 18.231 29.4148 18.3241 29.4088 18.4171V18.452Z" fill="black"/>
<path d="M54.8056 17.0972L53.9001 17.2542V17.5217H54.3139V19.1209L53.9061 19.1674V19.4524H55.2134V19.1674L54.8056 19.1209V17.0972Z" fill="black"/>
<path d="M57.2524 17.0622C57.0245 17.0506 56.8026 17.1436 56.6527 17.3064C56.5028 17.4635 56.4188 17.6728 56.4188 17.888C56.4128 18.0973 56.4788 18.3067 56.6167 18.4695C56.7546 18.6149 56.9465 18.6963 57.1504 18.6847C57.2344 18.6847 57.3183 18.6672 57.3903 18.6324C57.4683 18.5975 57.5342 18.5451 57.5882 18.4753V18.5102C57.6002 18.6672 57.5582 18.8184 57.4683 18.9464C57.3903 19.0394 57.2764 19.0976 57.1504 19.0918C57.0725 19.0976 56.9945 19.0976 56.9165 19.0918C56.8446 19.0801 56.7726 19.0569 56.7007 19.0336L56.6407 19.3709C56.7186 19.4058 56.8086 19.4291 56.8926 19.4465C56.9765 19.4523 57.0665 19.4523 57.1504 19.4465C57.3963 19.4581 57.6422 19.3651 57.8161 19.1964C57.996 18.9987 58.0919 18.7428 58.0739 18.4812V17.9694C58.0919 17.7193 58.008 17.4693 57.8401 17.2716C57.6841 17.1262 57.4683 17.0506 57.2524 17.0622ZM57.6062 18.2253C57.5702 18.2776 57.5222 18.3183 57.4623 18.3474C57.3963 18.3765 57.3183 18.3881 57.2464 18.3881C57.1504 18.3881 57.0605 18.3474 57.0065 18.266C56.9465 18.1613 56.9225 18.0392 56.9285 17.9229C56.9285 17.8066 56.9585 17.6844 57.0185 17.5856C57.0665 17.4984 57.1564 17.446 57.2584 17.446C57.3603 17.446 57.4563 17.4925 57.5102 17.5798C57.5822 17.6961 57.6182 17.8356 57.6062 17.9752V18.2253Z" fill="black"/>
<path d="M60.1848 17.0622C59.957 17.0564 59.7411 17.1436 59.5852 17.3064C59.4352 17.4635 59.3573 17.6728 59.3573 17.888C59.3513 18.0973 59.4172 18.3009 59.5492 18.4695C59.6871 18.6149 59.879 18.6905 60.0829 18.6847C60.1669 18.6847 60.2508 18.6672 60.3288 18.6324C60.4067 18.5975 60.4727 18.5393 60.5207 18.4753V18.5102C60.5327 18.6672 60.4907 18.8184 60.4007 18.9464C60.3288 19.0452 60.2088 19.0976 60.0889 19.0918C60.0109 19.0976 59.927 19.0976 59.849 19.0918C59.7771 19.0743 59.7051 19.0569 59.6331 19.0336L59.5792 19.3709C59.6571 19.4058 59.7411 19.4291 59.825 19.4465C59.915 19.4523 59.9989 19.4523 60.0889 19.4465C60.3348 19.4581 60.5746 19.3651 60.7486 19.1964C60.9285 18.9987 61.0244 18.7428 61.0064 18.4812V17.9694C61.0244 17.7193 60.9405 17.4693 60.7785 17.2716C60.6166 17.1262 60.4067 17.0506 60.1848 17.0622ZM60.5327 18.2253C60.4967 18.2776 60.4487 18.3241 60.3887 18.3474C60.3228 18.3765 60.2508 18.3881 60.1789 18.3881C60.0829 18.3881 59.9869 18.3474 59.939 18.266C59.879 18.1613 59.849 18.045 59.855 17.9229C59.855 17.8008 59.885 17.6844 59.951 17.5856C59.9989 17.4984 60.0889 17.446 60.1908 17.446C60.2928 17.446 60.3887 17.4984 60.4427 17.5798C60.5087 17.7019 60.5447 17.8356 60.5327 17.9752V18.2253Z" fill="black"/>
<path d="M63.753 17.0972H63.2613L62.2538 18.6615V18.8941H63.2433V19.1209L62.9854 19.1733V19.4524H63.9869V19.1733L63.729 19.1209V18.8941H64.0049V18.5801H63.729L63.753 17.0972ZM63.2673 18.5801H62.7095L63.2193 17.795L63.2613 17.7252V18.5801H63.2673Z" fill="black"/>
<path d="M7.13031 5.99583C5.6191 6.28078 4.86948 6.4378 3.37026 6.75764L3.6701 8.08936C4.49768 7.90909 4.91146 7.82767 5.73903 7.65902C5.69705 8.02539 5.52914 8.3685 5.25928 8.63019C4.56364 9.28151 3.50819 9.40363 2.67462 8.92677C1.72711 8.35105 1.43326 7.14146 2.02695 6.21681C2.60266 5.32125 3.80803 5.02467 4.75554 5.55386L6.63257 4.97233C6.27875 4.50128 5.77501 4.15818 5.19931 3.98953C4.47968 3.77436 3.71208 3.7511 2.98046 3.91975C2.00297 4.10002 1.13342 4.6583 0.581702 5.46082C0.0419816 6.21681 -0.131928 7.16472 0.101951 8.06028C0.305845 8.95585 0.899538 9.72929 1.72711 10.1771C2.56068 10.6598 3.56216 10.7993 4.50367 10.5783C5.43319 10.4097 6.25477 9.89212 6.78849 9.13031C7.31622 8.38013 7.50212 7.45549 7.31022 6.57155C7.26224 6.37383 7.20228 6.18192 7.13031 5.99583Z" fill="black"/>
</g>
<defs>
<clipPath id="clip0_22_279">
<rect width="85" height="24" fill="white"/>
</clipPath>
</defs>
</svg>
