<svg width="50" height="52" viewBox="0 0 50 52" fill="none" xmlns="http://www.w3.org/2000/svg">
<path fill-rule="evenodd" clip-rule="evenodd" d="M34.0538 8.39284C34.0538 9.39242 33.7016 10.7719 32.2903 10.7719C30.586 10.7719 30.586 8.85626 30.586 8.45481C30.586 8.05336 30.586 6.01646 32.3387 6.01646C33.9328 6.01646 34.0538 7.78393 34.0538 8.39553V8.39284ZM30.6102 3.05273H29.4677V10.419L29.4435 11.5155H30.5511L30.5753 10.5887C30.6989 10.7719 30.8306 10.9794 31.172 11.2111C31.6962 11.564 32.2419 11.6018 32.5349 11.6018C33.3737 11.6018 34.1909 11.2488 34.6774 10.5537C34.9812 10.1522 35.2607 9.50558 35.2607 8.32009C35.2607 6.97833 34.8468 6.36942 34.543 6.01646C33.9839 5.38061 33.2151 5.23512 32.6075 5.23512C31.2204 5.23512 30.7688 6.00299 30.6129 6.2832V3.05273H30.6102Z" fill="#1D1D1B"/>
<path fill-rule="evenodd" clip-rule="evenodd" d="M37.2285 8.63806C37.2285 8.08842 37.2285 6.14853 39.0538 6.14853C40.4059 6.14853 40.7339 7.2963 40.7339 8.39288C40.7339 8.83205 40.6721 9.71039 40.2339 10.3085C39.8441 10.8447 39.2339 10.9067 38.9436 10.9067C37.3387 10.9067 37.2285 9.38169 37.2285 8.63806ZM36.1344 13.8704H37.2661V10.8339C37.5941 11.3701 38.25 11.7473 39.1371 11.7473C40.5995 11.7473 41.9247 10.7477 41.9247 8.46563C41.9247 6.18355 40.6721 5.29443 39.3575 5.29443C38.8602 5.29443 37.8495 5.43993 37.2769 6.40449L37.2527 5.39412H36.0968C36.121 5.97879 36.1344 6.12697 36.1344 6.39371V13.8704Z" fill="#1D1D1B"/>
<path fill-rule="evenodd" clip-rule="evenodd" d="M24.7177 13.8701C25.2043 14.6057 26.078 15.9851 26.8172 17.7014C25.9812 18.6202 25.2796 19.5686 24.7177 20.5277C24.1559 19.5686 23.4543 18.6202 22.6183 17.7014C23.3575 15.9851 24.2339 14.603 24.7177 13.8701Z" fill="#1D1D1B"/>
<path fill-rule="evenodd" clip-rule="evenodd" d="M24.7177 42.2222C25.2823 43.1786 25.9839 44.127 26.8199 45.0485C26.0806 46.7675 25.2043 48.1496 24.7177 48.8825C24.2339 48.1469 23.3575 46.7675 22.6183 45.0485C23.4543 44.127 24.1559 43.1813 24.7177 42.2222Z" fill="#1D1D1B"/>
<path fill-rule="evenodd" clip-rule="evenodd" d="M18.7473 14.9263C19.4543 15.4517 20.7473 16.4485 22.0296 17.8092C21.5565 18.9596 21.2204 20.0912 21.0188 21.1851C20.164 20.4765 19.1801 19.8245 18.0806 19.2506C18.1882 17.3808 18.5403 15.7831 18.7473 14.929V14.9263Z" fill="#1D1D1B"/>
<path fill-rule="evenodd" clip-rule="evenodd" d="M28.422 41.5703C29.2769 42.2789 30.2608 42.9282 31.3602 43.5048C31.2527 45.372 30.9005 46.9697 30.6962 47.8265C29.9892 47.3011 28.6962 46.3042 27.414 44.9436C27.8871 43.7931 28.2231 42.6615 28.4247 41.5703H28.422Z" fill="#1D1D1B"/>
<path fill-rule="evenodd" clip-rule="evenodd" d="M13.4919 17.9658C14.3333 18.2164 15.8898 18.7094 17.5591 19.5501C17.5484 19.8195 17.5376 20.0916 17.5376 20.3584C17.5376 21.3068 17.6156 22.212 17.7581 23.0661C16.7124 22.6943 15.5699 22.4195 14.3414 22.2551C13.8065 20.4634 13.5914 18.8415 13.4919 17.9658Z" fill="#1D1D1B"/>
<path fill-rule="evenodd" clip-rule="evenodd" d="M31.9005 42.3975C31.9005 41.4491 31.8226 40.5438 31.6801 39.687C32.7231 40.0588 33.8683 40.3336 35.0968 40.4953C35.6317 42.2897 35.8468 43.909 35.9462 44.7846C35.1021 44.5368 33.5457 44.0437 31.879 43.2031C31.8898 42.931 31.8978 42.6615 31.8978 42.3975H31.9005Z" fill="#1D1D1B"/>
<path fill-rule="evenodd" clip-rule="evenodd" d="M13.957 22.7183C14.3333 23.901 14.7984 24.9815 15.3441 25.9487C14.2366 25.9568 13.0645 26.0969 11.8575 26.3636C10.7419 24.8629 9.98656 23.4107 9.59409 22.624C10.4704 22.5701 12.0995 22.5 13.957 22.7183Z" fill="#1D1D1B"/>
<path fill-rule="evenodd" clip-rule="evenodd" d="M37.5833 36.3865C38.6989 37.8899 39.4543 39.3394 39.8468 40.1262C38.9704 40.1801 37.3387 40.2501 35.4839 40.0319C35.1102 38.8491 34.6425 37.766 34.0968 36.7987C35.2016 36.7933 36.3736 36.6505 37.5833 36.3838V36.3865Z" fill="#1D1D1B"/>
<path fill-rule="evenodd" clip-rule="evenodd" d="M11.6505 26.9268C12.4086 27.9129 13.2177 28.7697 14.0618 29.4917C13.0242 29.8797 11.9704 30.4078 10.922 31.0733C9.36291 30.0441 8.15861 28.9421 7.52151 28.3332C8.32527 27.9829 9.83602 27.3578 11.6532 26.9268H11.6505Z" fill="#1D1D1B"/>
<path fill-rule="evenodd" clip-rule="evenodd" d="M38.5188 31.6768C40.0779 32.7033 41.2823 33.8079 41.9193 34.4169C41.1129 34.7698 39.6048 35.3922 37.7876 35.8233C37.0323 34.8399 36.2231 33.9804 35.3763 33.261C36.4167 32.873 37.4704 32.3423 38.5188 31.6768Z" fill="#1D1D1B"/>
<path fill-rule="evenodd" clip-rule="evenodd" d="M10.9194 31.6768C11.9677 32.3423 13.0215 32.873 14.0591 33.261C13.2151 33.9831 12.4059 34.8399 11.6478 35.8233C9.83064 35.3922 8.32258 34.7671 7.51613 34.4169C8.15322 33.8106 9.35752 32.706 10.9167 31.6768H10.9194Z" fill="#1D1D1B"/>
<path fill-rule="evenodd" clip-rule="evenodd" d="M37.7876 26.9268C39.6048 27.3605 41.1156 27.9829 41.9193 28.3359C41.2796 28.9421 40.0779 30.0468 38.5188 31.076C37.4704 30.4105 36.4167 29.8797 35.3763 29.4944C36.2231 28.7724 37.0323 27.9156 37.7876 26.9295V26.9268Z" fill="#1D1D1B"/>
<path fill-rule="evenodd" clip-rule="evenodd" d="M11.8575 36.3867C13.0672 36.6535 14.2366 36.7963 15.3441 36.8016C14.7984 37.7689 14.3306 38.8493 13.957 40.0321C12.0995 40.2503 10.4704 40.1803 9.59409 40.1264C9.98656 39.337 10.7392 37.8874 11.8575 36.3867Z" fill="#1D1D1B"/>
<path fill-rule="evenodd" clip-rule="evenodd" d="M39.8468 22.6215C39.4543 23.4109 38.6989 24.8605 37.5833 26.3612C36.3736 26.0945 35.1989 25.9544 34.0968 25.9463C34.6425 24.979 35.1102 23.8986 35.4839 22.7158C37.3387 22.4976 38.9704 22.5676 39.8468 22.6215Z" fill="#1D1D1B"/>
<path fill-rule="evenodd" clip-rule="evenodd" d="M17.7581 39.687C17.6156 40.5465 17.5376 41.4491 17.5376 42.3975C17.5376 42.6615 17.5484 42.931 17.5591 43.2031C15.8898 44.0437 14.336 44.5368 13.4919 44.7846C13.5914 43.909 13.8065 42.2897 14.3414 40.4953C15.5699 40.3309 16.7124 40.0561 17.7581 39.687Z" fill="#1D1D1B"/>
<path fill-rule="evenodd" clip-rule="evenodd" d="M35.9462 17.9658C35.8468 18.8415 35.6317 20.4634 35.0968 22.2551C33.871 22.4195 32.7231 22.6943 31.6801 23.0661C31.8226 22.2093 31.9005 21.3041 31.9005 20.3557C31.9005 20.0916 31.8925 19.8222 31.879 19.5501C33.5484 18.7094 35.1021 18.2164 35.9462 17.9658Z" fill="#1D1D1B"/>
<path fill-rule="evenodd" clip-rule="evenodd" d="M21.0161 41.5703C21.2177 42.6615 21.5538 43.7958 22.0269 44.9436C20.7446 46.3042 19.4516 47.3011 18.7446 47.8265C18.5403 46.967 18.1882 45.372 18.078 43.5048C19.1774 42.9282 20.1613 42.2789 21.0161 41.5703Z" fill="#1D1D1B"/>
<path fill-rule="evenodd" clip-rule="evenodd" d="M30.6935 14.9238C30.8978 15.7806 31.2527 17.3783 31.3575 19.2482C30.2581 19.8248 29.2742 20.4768 28.4194 21.1827C28.2177 20.0888 27.8817 18.9572 27.4086 17.8067C28.6935 16.4434 29.9866 15.4492 30.6909 14.9238H30.6935Z" fill="#1D1D1B"/>
<path fill-rule="evenodd" clip-rule="evenodd" d="M22.4059 18.2295C23.2177 19.1429 23.9005 20.0859 24.4328 21.0343C23.957 21.9315 23.6048 22.8421 23.379 23.7528C22.8575 22.9742 22.2151 22.2386 21.4624 21.5596C21.6371 20.4846 21.9543 19.3665 22.4059 18.2295Z" fill="#1D1D1B"/>
<path fill-rule="evenodd" clip-rule="evenodd" d="M26.0591 38.9971C26.5833 39.7757 27.2231 40.5113 27.9785 41.1902C27.8038 42.2653 27.4812 43.3834 27.0323 44.5231C26.2204 43.6043 25.5349 42.664 25.0081 41.7156C25.4839 40.8211 25.836 39.9077 26.0618 38.9971H26.0591Z" fill="#1D1D1B"/>
<path fill-rule="evenodd" clip-rule="evenodd" d="M18.0457 20.358C18.0457 20.1801 18.0538 19.9969 18.0591 19.8164C19.1344 20.3984 20.0968 21.0504 20.9194 21.7617C20.836 22.3544 20.7903 22.9364 20.7903 23.5076C20.7903 23.9037 20.8172 24.2916 20.8575 24.6769C20.0995 24.1246 19.2473 23.6531 18.3065 23.2732C18.1317 22.3625 18.043 21.3872 18.043 20.3607L18.0457 20.358Z" fill="#1D1D1B"/>
<path fill-rule="evenodd" clip-rule="evenodd" d="M28.6479 39.245C28.6479 38.8463 28.6183 38.461 28.5806 38.0757C29.3387 38.6307 30.1936 39.1022 31.1317 39.4821C31.3038 40.3928 31.3925 41.3681 31.3925 42.3973C31.3925 42.5725 31.3844 42.7557 31.3817 42.9362C30.3038 42.3569 29.3414 41.7049 28.5161 40.9936C28.6022 40.4009 28.6479 39.8162 28.6479 39.245Z" fill="#1D1D1B"/>
<path fill-rule="evenodd" clip-rule="evenodd" d="M14.5161 22.7964C15.7258 22.9742 16.8521 23.2571 17.8683 23.6397C18.078 24.6339 18.3952 25.558 18.8064 26.4041C17.9059 26.1427 16.9435 25.9918 15.9301 25.9568C15.3737 25.0219 14.9032 23.9603 14.5188 22.7964H14.5161Z" fill="#1D1D1B"/>
<path fill-rule="evenodd" clip-rule="evenodd" d="M30.6317 36.3486C31.5323 36.61 32.4946 36.7609 33.5081 36.7959C34.0645 37.7281 34.535 38.7924 34.922 39.9563C33.7124 39.7785 32.586 39.4956 31.5699 39.1103C31.3629 38.1161 31.043 37.1919 30.6317 36.3486Z" fill="#1D1D1B"/>
<path fill-rule="evenodd" clip-rule="evenodd" d="M15.6398 26.4527C16.1774 27.3148 16.7903 28.0746 17.4651 28.7293C16.5296 28.7913 15.5753 28.9799 14.6102 29.2951C13.7688 28.6081 12.9624 27.7702 12.2016 26.8083C13.4005 26.5631 14.5538 26.4392 15.6371 26.4527H15.6398Z" fill="#1D1D1B"/>
<path fill-rule="evenodd" clip-rule="evenodd" d="M34.828 33.4551C35.6694 34.1421 36.4758 34.9801 37.2366 35.9446C36.0403 36.1898 34.8844 36.3164 33.8011 36.3003C33.2634 35.4354 32.6479 34.6756 31.9758 34.0209C32.9086 33.9562 33.8656 33.7703 34.8306 33.4551H34.828Z" fill="#1D1D1B"/>
<path fill-rule="evenodd" clip-rule="evenodd" d="M14.5108 29.8638C15.3091 30.4888 16.1425 30.9954 17 31.378C16.1452 31.7552 15.3091 32.2617 14.5108 32.8868C13.4866 32.5284 12.4409 32.0192 11.4005 31.378C12.4409 30.734 13.4839 30.2221 14.5108 29.8638Z" fill="#1D1D1B"/>
<path fill-rule="evenodd" clip-rule="evenodd" d="M34.9274 29.8638C35.9543 30.2221 36.9973 30.7313 38.0376 31.3753C36.9973 32.0192 35.9516 32.5284 34.9274 32.8868C34.129 32.2617 33.293 31.7552 32.4382 31.378C33.2957 30.9954 34.129 30.4915 34.9274 29.8638Z" fill="#1D1D1B"/>
<path fill-rule="evenodd" clip-rule="evenodd" d="M14.6102 33.4551C15.5726 33.7703 16.5296 33.9589 17.4651 34.0209C16.7903 34.6756 16.1774 35.4354 15.6398 36.3003C14.5565 36.3137 13.4005 36.1898 12.2043 35.9446C12.9651 34.9827 13.7715 34.1448 14.6129 33.4551H14.6102Z" fill="#1D1D1B"/>
<path fill-rule="evenodd" clip-rule="evenodd" d="M37.2366 26.8083C36.4758 27.7702 35.6694 28.6054 34.828 29.2951C33.8656 28.9799 32.9059 28.794 31.9731 28.7293C32.6478 28.0746 33.2607 27.3148 33.7984 26.4527C34.8817 26.4392 36.0376 26.5631 37.2339 26.8083H37.2366Z" fill="#1D1D1B"/>
<path fill-rule="evenodd" clip-rule="evenodd" d="M18.8064 36.3486C18.3952 37.1919 18.078 38.1161 17.8683 39.1103C16.8521 39.4983 15.7258 39.7785 14.5161 39.9563C14.9005 38.7924 15.3737 37.7308 15.9274 36.7959C16.9409 36.7582 17.9032 36.61 18.8038 36.3486H18.8064Z" fill="#1D1D1B"/>
<path fill-rule="evenodd" clip-rule="evenodd" d="M34.922 22.7937C34.535 23.9576 34.0645 25.0192 33.5081 25.9541C32.4919 25.9892 31.5323 26.14 30.6317 26.4014C31.043 25.5581 31.3629 24.6339 31.5699 23.637C32.586 23.249 33.7124 22.9688 34.922 22.791V22.7937Z" fill="#1D1D1B"/>
<path fill-rule="evenodd" clip-rule="evenodd" d="M23.379 38.9971C23.6048 39.9077 23.9543 40.8184 24.4328 41.7156C23.9005 42.6667 23.2204 43.607 22.4059 44.5231C21.9543 43.3834 21.6371 42.268 21.4624 41.1902C22.2151 40.5113 22.8575 39.7757 23.379 38.9971Z" fill="#1D1D1B"/>
<path fill-rule="evenodd" clip-rule="evenodd" d="M20.8575 38.0757C20.8172 38.4637 20.7903 38.8489 20.7903 39.2477C20.7903 39.8162 20.836 40.4009 20.9194 40.9936C20.0968 41.7049 19.1344 42.3569 18.0591 42.9362C18.0538 42.7557 18.0457 42.5752 18.0457 42.3973C18.0457 41.3708 18.1344 40.3955 18.3091 39.4848C19.2473 39.1022 20.1021 38.6334 20.8602 38.0784L20.8575 38.0757Z" fill="#1D1D1B"/>
<path fill-rule="evenodd" clip-rule="evenodd" d="M27.0323 18.2295C27.4839 19.3692 27.8038 20.4873 27.9785 21.5596C27.2231 22.2386 26.5833 22.9768 26.0591 23.7555C25.8333 22.8448 25.4812 21.9342 25.0054 21.037C25.5349 20.0886 26.2177 19.1456 27.0296 18.2295H27.0323Z" fill="#1D1D1B"/>
<path fill-rule="evenodd" clip-rule="evenodd" d="M31.379 19.814C31.3844 19.9972 31.3925 20.1777 31.3925 20.3555C31.3925 21.382 31.3038 22.3601 31.1317 23.2708C30.1936 23.6506 29.3387 24.1248 28.5806 24.6772C28.621 24.2919 28.6479 23.9066 28.6479 23.5079C28.6479 22.9394 28.6022 22.352 28.5161 21.7593C29.3414 21.0506 30.3011 20.3986 31.3763 19.8167L31.379 19.814Z" fill="#1D1D1B"/>
<path fill-rule="evenodd" clip-rule="evenodd" d="M21.2957 23.505C21.2957 23.0712 21.3306 22.6267 21.3817 22.1821C22.121 22.8853 22.7419 23.6478 23.2258 24.4534C23.1237 25.0273 23.0699 25.6039 23.0699 26.1859C23.0699 26.4364 23.086 26.687 23.1048 26.9376C22.621 26.2613 22.0565 25.6497 21.4194 25.1135C21.3387 24.5935 21.293 24.0574 21.293 23.5077L21.2957 23.505Z" fill="#1D1D1B"/>
<path fill-rule="evenodd" clip-rule="evenodd" d="M26.3683 36.5696C26.3683 36.3163 26.3495 36.0684 26.3306 35.8179C26.8145 36.4941 27.3763 37.1057 28.0161 37.6446C28.0995 38.1619 28.1425 38.6981 28.1425 39.2477C28.1425 39.6815 28.1075 40.1234 28.0565 40.5733C27.3172 39.8674 26.6962 39.1076 26.2097 38.302C26.3118 37.7281 26.3683 37.1489 26.3683 36.5696Z" fill="#1D1D1B"/>
<path fill-rule="evenodd" clip-rule="evenodd" d="M18.4435 23.8823C19.379 24.2892 20.2231 24.7903 20.9543 25.3804C21.0995 26.2021 21.3468 26.9969 21.6882 27.7594C21.0027 27.2879 20.2634 26.9053 19.4812 26.6197C19.0269 25.7953 18.6828 24.8738 18.4435 23.8823Z" fill="#1D1D1B"/>
<path fill-rule="evenodd" clip-rule="evenodd" d="M27.7473 34.9937C28.4355 35.4625 29.172 35.8477 29.957 36.1333C30.4113 36.9578 30.7554 37.8766 30.9946 38.8708C30.0591 38.4639 29.2124 37.9601 28.4839 37.37C28.3387 36.5483 28.0914 35.7534 27.7473 34.9937Z" fill="#1D1D1B"/>
<path fill-rule="evenodd" clip-rule="evenodd" d="M16.2634 26.4849C17.2823 26.5495 18.2473 26.73 19.1344 27.0318C19.5511 27.7566 20.0564 28.4194 20.6371 29.0148C19.8306 28.8074 19.0054 28.6969 18.1694 28.6969C17.4651 28.0799 16.828 27.3336 16.2634 26.4849Z" fill="#1D1D1B"/>
<path fill-rule="evenodd" clip-rule="evenodd" d="M28.8011 33.7378C29.6075 33.9453 30.4328 34.0557 31.2715 34.0557C31.9758 34.6727 32.6129 35.4163 33.1747 36.2704C32.1559 36.2058 31.1909 36.0253 30.3038 35.7208C29.8871 34.996 29.3817 34.3359 28.8011 33.7405V33.7378Z" fill="#1D1D1B"/>
<path fill-rule="evenodd" clip-rule="evenodd" d="M17.9892 29.2087C18.6263 29.7449 19.3253 30.1922 20.0699 30.5532C19.2446 30.6367 18.4382 30.8199 17.6532 31.1055C16.7769 30.7661 15.922 30.2838 15.1021 29.6749C16.0806 29.3866 17.0511 29.2249 17.9866 29.2061L17.9892 29.2087Z" fill="#1D1D1B"/>
<path fill-rule="evenodd" clip-rule="evenodd" d="M31.7823 31.6445C32.6586 31.984 33.5134 32.4663 34.3333 33.0752C33.3548 33.3635 32.3871 33.5252 31.4489 33.5413C30.8118 33.0052 30.1129 32.5579 29.3656 32.1969C30.1935 32.1133 31.0027 31.9301 31.7823 31.6445Z" fill="#1D1D1B"/>
<path fill-rule="evenodd" clip-rule="evenodd" d="M17.6559 31.6445C18.4382 31.9328 19.2473 32.116 20.0726 32.1996C19.3253 32.5606 18.6263 33.0078 17.9892 33.5413C17.0484 33.5252 16.0833 33.3635 15.1048 33.0752C15.9247 32.4663 16.7796 31.984 17.6559 31.6445Z" fill="#1D1D1B"/>
<path fill-rule="evenodd" clip-rule="evenodd" d="M31.4489 29.209C32.3871 29.2278 33.3548 29.3895 34.3333 29.6778C33.5134 30.2867 32.6586 30.769 31.7823 31.1085C31 30.8229 30.1935 30.6397 29.3656 30.5561C30.1129 30.1951 30.8145 29.7478 31.4489 29.2117V29.209Z" fill="#1D1D1B"/>
<path fill-rule="evenodd" clip-rule="evenodd" d="M20.6398 33.738C20.0565 34.3335 19.5538 34.9936 19.1371 35.7184C18.25 36.0228 17.2876 36.206 16.2661 36.268C16.828 35.4166 17.4651 34.673 18.172 34.0533C19.0081 34.0533 19.8333 33.9428 20.6425 33.7354L20.6398 33.738Z" fill="#1D1D1B"/>
<path fill-rule="evenodd" clip-rule="evenodd" d="M33.1747 26.4849C32.6102 27.3336 31.9758 28.0799 31.2715 28.6969C30.4328 28.6969 29.6075 28.81 28.8011 29.0148C29.3817 28.4194 29.8844 27.7566 30.3038 27.0318C31.1909 26.7274 32.1559 26.5468 33.1747 26.4849Z" fill="#1D1D1B"/>
<path fill-rule="evenodd" clip-rule="evenodd" d="M24.7177 36.1011C24.9435 36.9013 25.2634 37.6719 25.6801 38.3939C25.5 39.3181 25.172 40.2449 24.7177 41.161C24.2634 40.2449 23.9382 39.3181 23.7581 38.3939C24.1747 37.6692 24.4946 36.9013 24.7177 36.1011Z" fill="#1D1D1B"/>
<path fill-rule="evenodd" clip-rule="evenodd" d="M23.1075 35.8154C23.0887 36.066 23.0726 36.3166 23.0726 36.5671C23.0726 37.1464 23.1263 37.7257 23.2285 38.2996C22.7446 39.1052 22.121 39.865 21.3844 40.5709C21.3333 40.1236 21.2984 39.6818 21.2984 39.248C21.2984 38.6983 21.3414 38.1622 21.4247 37.6422C22.0618 37.1033 22.6263 36.4917 23.1102 35.8154H23.1075Z" fill="#1D1D1B"/>
<path fill-rule="evenodd" clip-rule="evenodd" d="M21.6882 34.9937C21.3468 35.7534 21.0995 36.5483 20.9543 37.37C20.2231 37.9601 19.379 38.4612 18.4435 38.8708C18.6828 37.8766 19.0296 36.9551 19.4812 36.1333C20.2634 35.8504 21 35.4652 21.6882 34.9937Z" fill="#1D1D1B"/>
<path fill-rule="evenodd" clip-rule="evenodd" d="M24.7177 21.5923C25.172 22.5083 25.5 23.4352 25.6801 24.3593C25.2634 25.0814 24.9435 25.852 24.7177 26.6522C24.4946 25.8493 24.1747 25.0814 23.7581 24.3593C23.9382 23.4352 24.2661 22.5083 24.7177 21.5923Z" fill="#1D1D1B"/>
<path fill-rule="evenodd" clip-rule="evenodd" d="M28.0565 22.1824C28.1075 22.6296 28.1425 23.0742 28.1425 23.5053C28.1425 24.0549 28.0995 24.5911 28.0161 25.1111C27.379 25.6499 26.8145 26.2616 26.3306 26.9351C26.3495 26.6846 26.3683 26.434 26.3683 26.1834C26.3683 25.6041 26.3118 25.0249 26.2097 24.451C26.6935 23.6454 27.3172 22.8856 28.0565 22.1797V22.1824Z" fill="#1D1D1B"/>
<path fill-rule="evenodd" clip-rule="evenodd" d="M30.9946 23.8823C30.7554 24.8765 30.4113 25.7953 29.957 26.6197C29.172 26.9053 28.4355 27.2879 27.7473 27.7594C28.0914 26.9996 28.3387 26.2048 28.4839 25.3804C29.2124 24.7876 30.0591 24.2892 30.9946 23.8823Z" fill="#1D1D1B"/>
</svg>
