<svg width="79" height="26" viewBox="0 0 79 26" fill="none" xmlns="http://www.w3.org/2000/svg">
<g clip-path="url(#clip0_20_210)">
<mask id="mask0_20_210" style="mask-type:luminance" maskUnits="userSpaceOnUse" x="0" y="0" width="79" height="26">
<path d="M79 0H0V26H79V0Z" fill="white"/>
</mask>
<g mask="url(#mask0_20_210)">
<path d="M6.27518 8.8912C6.60986 8.87394 6.92361 8.72719 7.16625 8.49413C7.49674 8.17905 7.87325 7.81219 8.30415 7.52301C9.43367 6.7677 10.7222 7.00077 11.5923 8.02799C12.3914 8.96889 12.4541 10.2767 11.7555 11.278C11.0234 12.3311 9.66376 12.6893 8.50914 12.0808C8.11171 11.8693 7.78122 11.524 7.43399 11.2262C6.53037 10.4493 5.65185 10.4882 4.77751 11.2737C4.49304 11.5283 4.2253 11.8261 3.89899 12.0204C2.78201 12.6764 1.38056 12.4045 0.594075 11.4204C-0.234245 10.3802 -0.196594 8.99911 0.681927 7.99346C1.56463 6.9835 2.8364 6.78496 3.97847 7.54891C4.70639 8.03662 5.23769 8.93868 6.271 8.8912" fill="black"/>
<path d="M14.9307 5.99946C14.9056 5.71891 14.7884 5.45132 14.6002 5.24846C14.2822 4.90749 13.9392 4.55789 13.6756 4.15218C12.9101 2.99116 13.0774 1.6877 14.0438 0.746801C14.9976 -0.18547 16.3614 -0.258843 17.3738 0.569842C18.336 1.35537 18.6121 2.80125 17.9846 3.96659C17.8047 4.30324 17.5286 4.59242 17.2776 4.8816C16.4158 5.87861 16.4743 6.83677 17.3445 7.79063C17.5537 8.01938 17.7754 8.24381 17.926 8.51141C18.6372 9.73717 18.3569 11.278 17.3027 12.0894C16.3363 12.8361 15.0771 12.7973 14.1442 11.9902C13.0732 11.0665 12.8766 9.65517 13.7216 8.41214C14.2069 7.69567 15.0352 7.1648 14.9348 5.99946" fill="black"/>
<path d="M19.4279 15.4085C19.6998 15.3826 19.9592 15.2618 20.1558 15.0632C20.4863 14.7352 20.8251 14.3813 21.2184 14.1094C22.3437 13.3196 23.6071 13.4922 24.5191 14.4892C25.4227 15.4733 25.4938 16.8803 24.6906 17.9248C23.9292 18.9175 22.5278 19.2024 21.3983 18.5549C21.072 18.3694 20.7917 18.0845 20.5114 17.8255C19.545 16.9364 18.6163 16.9968 17.6917 17.8946C17.47 18.1104 17.2525 18.3391 16.9931 18.4945C15.805 19.2283 14.3115 18.9391 13.525 17.8514C12.8013 16.8544 12.8389 15.5553 13.6213 14.5928C14.5165 13.4879 15.8845 13.285 17.0893 14.1569C17.7838 14.6575 18.2983 15.5121 19.4279 15.4085Z" fill="black"/>
<path d="M8.50074 19.4741C8.484 19.1979 8.37523 18.9303 8.19535 18.7231C7.83557 18.3174 7.43814 17.903 7.1453 17.424C6.44249 16.2759 6.71441 14.912 7.7268 14.0617C8.63879 13.2978 9.96912 13.2633 10.8895 13.9841C11.8768 14.7566 12.1863 16.1939 11.5546 17.3506C11.3371 17.752 10.9815 18.0757 10.697 18.4426C10.0277 19.2928 10.0444 20.1517 10.697 21.002C10.9313 21.3084 11.2283 21.5674 11.4333 21.8954C12.132 23.0349 11.9981 24.3599 11.153 25.2317C10.0946 26.3237 8.36268 26.2374 7.37539 25.0764C6.61401 24.1872 6.53452 22.9658 7.23734 21.8738C7.7017 21.1487 8.5593 20.6394 8.49237 19.4784" fill="black"/>
<path d="M13.023 22.9401C13.0523 21.3561 14.2488 20.1433 15.7799 20.1519C17.2943 20.1562 18.5452 21.4079 18.5786 22.9401C18.6121 24.5241 17.2065 25.9398 15.667 25.875C14.1777 25.8146 12.9979 24.5025 13.023 22.9401Z" fill="black"/>
<path d="M6.52615 3.00834C6.58472 1.45887 7.84394 0.250373 9.37089 0.284901C10.8769 0.31943 12.1278 1.60993 12.1194 3.12487C12.111 4.71319 10.6719 6.10728 9.1408 5.99938C7.65568 5.89579 6.47177 4.53623 6.52615 3.00402" fill="black"/>
<path d="M22.1471 6.92742C23.6657 6.87563 24.9458 8.05823 25.0379 9.59907C25.1341 11.2046 23.8247 12.6376 22.2475 12.6376C20.7373 12.6376 19.5325 11.4032 19.5032 9.8235C19.4739 8.23087 20.616 6.97921 22.1471 6.92742Z" fill="black"/>
<path d="M0.192418 16.3709C0.171501 14.7826 1.32613 13.5352 2.85727 13.4878C4.45534 13.436 5.80241 14.7955 5.74802 16.4054C5.702 17.8815 4.35912 19.2238 2.93257 19.2152C1.46 19.2066 0.213336 17.916 0.192418 16.3709Z" fill="black"/>
<path d="M35.4504 12.767C36.2578 12.767 36.7556 12.3052 36.7556 11.5887C36.7556 10.8723 36.262 10.3802 35.4504 10.3802H34.0992V12.767H35.4504ZM34.0992 13.6302V16.4788H33.1663V9.5127H35.6219C36.8686 9.5127 37.7095 10.4061 37.7095 11.5758C37.7095 12.7454 36.8728 13.6302 35.6219 13.6302H34.0992Z" fill="black"/>
<path d="M42.0477 15.745C43.3027 15.745 44.4866 14.8127 44.4866 12.9956C44.4866 11.1786 43.3069 10.2549 42.0477 10.2549C40.7885 10.2549 39.6088 11.1786 39.6088 12.9956C39.6088 14.8127 40.7885 15.745 42.0477 15.745ZM42.0477 9.37012C43.742 9.37012 45.4363 10.6693 45.4363 12.9956C45.4363 15.322 43.742 16.6297 42.0477 16.6297C40.3534 16.6297 38.6591 15.322 38.6591 12.9956C38.6591 10.6693 40.3534 9.37012 42.0477 9.37012Z" fill="black"/>
</g>
<path d="M46.9633 16.4832V9.51709H47.8962V15.5769H51.0881V16.4832H46.9633Z" fill="black"/>
<path d="M53.8952 13.6433H56.217L55.0457 10.5184L53.891 13.6433H53.8952ZM56.5517 14.5367H53.5605L52.8452 16.4832H51.8453L54.5311 9.51709H55.6062L58.292 16.4832H57.2838L56.5517 14.5367Z" fill="black"/>
<mask id="mask1_20_210" style="mask-type:luminance" maskUnits="userSpaceOnUse" x="0" y="0" width="79" height="26">
<path d="M79 0H0V26H79V0Z" fill="white"/>
</mask>
<g mask="url(#mask1_20_210)">
<path d="M61.8563 12.767C62.6177 12.767 63.1322 12.3052 63.1322 11.5887C63.1322 10.8723 62.6177 10.3802 61.8563 10.3802H60.4297V12.767H61.8563ZM61.4379 13.6302H60.4297V16.4788H59.4885V9.5127H62.032C63.3079 9.5127 64.0986 10.4363 64.0986 11.5844C64.0986 12.5857 63.4795 13.3626 62.4629 13.5569L64.0735 16.4745H62.9858L61.4421 13.6259L61.4379 13.6302Z" fill="black"/>
<path d="M68.5331 15.745C69.7923 15.745 70.972 14.8127 70.972 12.9956C70.972 11.1786 69.7923 10.2549 68.5331 10.2549C67.2738 10.2549 66.0941 11.1786 66.0941 12.9956C66.0941 14.8127 67.2738 15.745 68.5331 15.745ZM68.5331 9.37012C70.2273 9.37012 71.9216 10.6693 71.9216 12.9956C71.9216 15.322 70.2273 16.6297 68.5331 16.6297C66.8388 16.6297 65.1445 15.322 65.1445 12.9956C65.1445 10.6693 66.8388 9.37012 68.5331 9.37012Z" fill="black"/>
</g>
<path d="M78.0671 9.51709V14.8604L74.6952 9.51709H73.4486V16.4832H74.3815V10.8033L78.0294 16.4832H79V9.51709H78.0671Z" fill="black"/>
</g>
<defs>
<clipPath id="clip0_20_210">
<rect width="79" height="26" fill="white"/>
</clipPath>
</defs>
</svg>
