<svg width="60" height="26" viewBox="0 0 60 26" fill="none" xmlns="http://www.w3.org/2000/svg">
<g clip-path="url(#clip0_35_497)">
<path d="M0.573487 5.62865C0.713279 5.54562 0.814202 5.4796 0.92058 5.42243C4.14875 3.68011 7.38033 1.94256 10.603 0.190714C11.0688 -0.0624662 11.4779 -0.0631468 11.9437 0.190034C15.1671 1.94188 18.398 3.67943 21.6261 5.42175C21.7325 5.47892 21.8341 5.54426 21.976 5.62865C21.8382 5.71236 21.7366 5.77634 21.6329 5.83623C19.3779 7.13956 17.1221 8.44154 14.8663 9.74487C14.3208 10.06 14.3304 10.9597 14.8438 11.3198C15.283 11.6274 15.6362 11.6185 16.104 11.3402C18.1088 10.1471 20.1389 8.99758 22.1601 7.83241C22.2664 7.77115 22.3749 7.71262 22.5181 7.63367C22.5303 7.74257 22.5481 7.82424 22.5481 7.90591C22.5494 11.607 22.5481 15.308 22.5515 19.0091C22.5515 19.3875 22.3926 19.6563 22.0728 19.8428C18.6394 21.8465 15.2066 23.8508 11.7739 25.8552C11.4411 26.0491 11.1111 26.0505 10.7776 25.8559C7.34487 23.8515 3.91212 21.8472 0.478702 19.8435C0.183434 19.67 0.000681911 19.4277 0 19.0765C0 15.3189 0 11.5614 0.000681911 7.80382C0.000681911 7.76163 0.0102287 7.71875 0.0197754 7.63844C0.147293 7.70378 0.256399 7.75346 0.359367 7.81267C3.53912 9.64346 6.71683 11.4783 9.90135 13.301C10.1843 13.4629 10.2866 13.6467 10.2853 13.9714C10.2723 16.6651 10.2778 19.3589 10.2784 22.0527C10.2784 22.6857 11.0756 23.143 11.6423 22.8368C11.6525 22.8313 11.6607 22.8231 11.6716 22.8191C12.166 22.6544 12.2867 22.3154 12.2819 21.805C12.256 18.8056 12.2649 15.8062 12.2758 12.8075C12.2771 12.4931 12.1694 12.3155 11.9 12.1617C8.23612 10.0593 4.57835 7.94675 0.918534 5.83691C0.814202 5.77702 0.712597 5.71236 0.574169 5.62865H0.573487Z" fill="black"/>
<path d="M36.3902 9.92465V5.63623H38.9433V19.1501C38.3493 19.2508 37.7431 19.4162 37.1308 19.4441C36.0131 19.4951 34.8832 19.5557 33.7744 19.4495C31.5807 19.2392 30.0662 17.8209 29.6741 15.6838C29.3106 13.7047 29.923 11.6037 31.6332 10.51C33.0216 9.62178 34.5347 9.50812 36.1093 9.8702C36.1754 9.88517 36.2381 9.91171 36.3036 9.93213C36.3138 9.93485 36.3261 9.93077 36.3902 9.92533V9.92465ZM36.382 14.748C36.382 14.0021 36.3732 13.2555 36.3875 12.5095C36.3916 12.2883 36.3227 12.1713 36.1079 12.1345C35.741 12.0719 35.3762 11.9739 35.0066 11.9501C33.653 11.8616 32.6274 12.5259 32.3301 13.7026C32.2346 14.079 32.2162 14.486 32.2299 14.8766C32.2708 16.0643 32.9936 16.9878 34.1617 17.224C34.7816 17.3492 35.4396 17.2819 36.0806 17.307C36.3145 17.3166 36.3916 17.2233 36.3875 16.9872C36.3738 16.2412 36.3827 15.4946 36.3827 14.7487L36.382 14.748Z" fill="black"/>
<path d="M60 19.1757C59.209 19.2866 58.4179 19.4364 57.6208 19.5003C56.3995 19.5983 55.1775 19.6351 53.9773 19.2757C51.4795 18.5284 50.5207 16.5119 50.6496 14.272C50.713 13.1729 51.0403 12.1622 51.7714 11.3155C52.6824 10.2592 53.8778 9.76173 55.245 9.70865C55.9603 9.68142 56.6811 9.78623 57.4244 9.83251V5.64551H60V19.1757ZM57.436 14.7178C57.436 13.9719 57.4292 13.2259 57.4408 12.48C57.4435 12.2881 57.3869 12.171 57.2007 12.1445C56.6988 12.073 56.1929 11.9383 55.6944 11.9607C54.4397 12.0179 53.6473 12.642 53.38 13.7309C53.2954 14.0767 53.2702 14.4469 53.2804 14.8036C53.3172 16.064 54.0401 16.9849 55.2791 17.2414C55.843 17.3585 56.4459 17.2823 57.0296 17.3184C57.3944 17.3408 57.453 17.1727 57.4435 16.8535C57.421 16.1423 57.4367 15.4297 57.4367 14.7178H57.436Z" fill="black"/>
<path d="M43.0013 23.1496H40.3998C40.3998 23.0087 40.3998 22.8876 40.3998 22.7657C40.3998 18.7815 40.4032 14.798 40.3923 10.8138C40.3917 10.5389 40.4742 10.4177 40.7285 10.3361C42.5451 9.75212 44.389 9.43633 46.2793 9.89028C48.576 10.4422 49.8607 12.1458 49.8245 14.5054C49.8034 15.8679 49.4945 17.1311 48.5064 18.1397C47.6035 19.0613 46.4566 19.4444 45.2012 19.5329C44.3679 19.5914 44.3658 19.569 44.3658 18.738C44.3658 18.3535 44.3747 17.9682 44.3624 17.5837C44.3563 17.3829 44.4231 17.3217 44.629 17.2958C44.985 17.2523 45.3539 17.1998 45.6833 17.0678C46.85 16.6009 47.2824 15.512 47.1855 14.2944C47.0703 12.8454 46.1218 12.0049 44.6591 12.0049C44.2097 12.0049 43.7603 12.09 43.3096 12.1281C43.045 12.1505 42.9945 12.2948 42.9952 12.5378C43.0027 15.9333 43 19.3287 43 22.7242C43 22.8576 43 22.9903 43 23.1503L43.0013 23.1496Z" fill="black"/>
</g>
<defs>
<clipPath id="clip0_35_497">
<rect width="60" height="26" fill="white"/>
</clipPath>
</defs>
</svg>
