<svg width="66" height="16" viewBox="0 0 66 16" fill="none" xmlns="http://www.w3.org/2000/svg">
<g clip-path="url(#clip0_20_76)">
<path d="M63.4876 1.3781C63.4876 1.13145 63.5575 0.890322 63.6887 0.685219C63.8198 0.480117 64.0062 0.32025 64.2243 0.225836C64.4424 0.131422 64.6824 0.106702 64.9139 0.154802C65.1454 0.202902 65.3581 0.321661 65.525 0.496061C65.692 0.670461 65.8057 0.892669 65.8517 1.13458C65.8978 1.3765 65.8742 1.62725 65.7838 1.85513C65.6935 2.08302 65.5405 2.27779 65.3442 2.41483C65.148 2.55187 64.9172 2.62501 64.6811 2.62501C64.3647 2.62479 64.0613 2.49335 63.8375 2.25956C63.6137 2.02578 63.4879 1.70875 63.4876 1.3781ZM65.6962 1.3781C65.6962 1.09679 65.5892 0.827002 65.3989 0.628085C65.2085 0.429168 64.9503 0.317418 64.6811 0.317418C64.4118 0.317418 64.1536 0.429168 63.9632 0.628085C63.7729 0.827002 63.6659 1.09679 63.6659 1.3781C63.6659 1.65941 63.7729 1.9292 63.9632 2.12812C64.1536 2.32704 64.4118 2.43879 64.6811 2.43879C64.9503 2.43879 65.2085 2.32704 65.3989 2.12812C65.5892 1.9292 65.6962 1.65941 65.6962 1.3781ZM65.2435 2.05169H65.024L64.6395 1.42096H64.42V2.05169H64.2417V0.690124H64.8042C65.0374 0.690124 65.2705 0.761792 65.2705 1.04851C65.2705 1.32086 65.0922 1.42112 64.859 1.42112L65.2435 2.05169ZM64.6398 1.23465C64.8043 1.23465 65.0925 1.26326 65.0925 1.04834C65.0925 0.905048 64.9142 0.876262 64.7769 0.876262H64.4339V1.23482L64.6398 1.23465Z" fill="black"/>
<path d="M33.5831 12.8305V12.5582L33.6243 12.5008C34.5296 11.2109 35.0097 9.56254 35.0097 7.74214C35.0097 3.57121 31.6488 0.174316 27.506 0.174316C23.3633 0.174316 20.0024 3.57121 20.0024 7.74214C20.0024 9.56254 20.483 11.2107 21.3878 12.5008L21.429 12.5724V12.8448H19.7693V15.8691H35.2291V12.8448H33.7751L33.5831 12.8305ZM27.4924 12.3575C25.0781 12.3575 23.3359 10.466 23.3359 7.87137C23.3359 5.54947 25.2015 3.67182 27.4924 3.67182C29.7833 3.67182 31.6489 5.54947 31.6489 7.87137C31.6488 10.4654 29.9067 12.3575 27.4924 12.3575ZM12.3753 0.690214L9.42605 8.78851L9.37129 8.9318H9.09686L6.1063 0.690214H2.59461L0.125366 15.8547H3.66462L4.96773 7.81378L5.00894 7.64171H5.31077L8.28754 15.8547H10.194L13.1299 7.77092L13.1848 7.64187H13.4865L14.8308 15.8548H18.3567L15.887 0.690214H12.3753ZM51.1004 9.86334L51.0592 10.021H50.7574L47.7396 0.690214H45.1332L42.1564 9.87774L42.1015 10.021H41.8131L39.1385 0.690214H35.517L39.8381 15.8547H43.4871L46.2444 7.36919L46.2991 7.22589H46.5736L49.372 15.8545H53.021L57.3557 0.690214H53.7205L51.1004 9.86334ZM58.7962 0.690224H62.2805V15.8691H58.7962V0.690224Z" fill="black"/>
</g>
<defs>
<clipPath id="clip0_20_76">
<rect width="66" height="16" fill="white"/>
</clipPath>
</defs>
</svg>
