<?xml version="1.0" encoding="UTF-8"?> <svg xmlns="http://www.w3.org/2000/svg" width="307" height="156" viewBox="0 0 307 156" fill="none"><path d="M2.48047 146V117.816H13.3398C19.043 117.816 22.9297 121.586 22.9297 127.23V127.27C22.9297 132.895 19.043 136.684 13.3398 136.684H7.51953V146H2.48047ZM12.0898 121.938H7.51953V132.621H12.0898C15.7031 132.621 17.8125 130.668 17.8125 127.289V127.25C17.8125 123.871 15.7031 121.938 12.0898 121.938ZM38.6211 146V117.816H43.6602V146H38.6211ZM60.6211 146V117.816H65.6602V141.762H78.4531V146H60.6211ZM94.0664 146V117.816H99.1055V141.762H111.898V146H94.0664ZM125.559 146L135.637 117.816H141.301L151.379 146H146.086L143.703 138.715H133.215L130.832 146H125.559ZM138.41 122.836L134.484 134.828H142.434L138.527 122.836H138.41ZM166.387 146V117.816H177.637C183.652 117.816 187.324 121.156 187.324 126.605V126.645C187.324 130.434 185.293 133.5 182.012 134.691L188.164 146H182.422L176.875 135.453H171.426V146H166.387ZM171.426 131.469H177.109C180.293 131.469 182.168 129.711 182.168 126.684V126.645C182.168 123.695 180.176 121.898 177.012 121.898H171.426V131.469ZM209.5 146L201.746 117.816H204.539L210.77 142.016H210.828L217.664 117.816H220.34L227.176 142.016H227.234L233.465 117.816H236.258L228.504 146H226.004L219.031 122.211H218.973L212 146H209.5ZM251.754 146V117.816H268.766V120.238H254.41V130.375H268.043V132.758H254.41V143.578H268.766V146H251.754ZM285.316 146V117.816H295.355C300.316 117.816 303.578 120.609 303.578 124.77V124.809C303.578 127.914 301.391 130.668 298.266 131.176V131.234C302.25 131.703 305.043 134.359 305.043 138.246V138.285C305.043 143.07 301.586 146 295.336 146H285.316ZM294.789 120.18H287.973V130.336H294.047C298.324 130.336 300.883 128.402 300.883 125.062V125.023C300.883 121.996 298.617 120.18 294.789 120.18ZM294.73 132.641H287.973V143.637H294.965C299.828 143.637 302.309 141.645 302.309 138.188V138.148C302.309 134.613 299.516 132.641 294.73 132.641Z" fill="white"></path><path fill-rule="evenodd" clip-rule="evenodd" d="M166.169 73.5734C167.798 70.4798 170.395 67.4683 170.869 63.0767L170.958 18.1158C170.976 12.8664 170.853 9.50015 168.417 5.51825C167.135 3.429 163.531 -0.437172 159.594 0.040907L159.724 100C166.898 98.4018 160.372 84.5733 166.169 73.5734ZM147.431 83.6108C144.723 81.2942 143.883 80.2634 139.913 78.0951C136.242 76.0916 135.205 75.0237 132.616 72.4609C127.337 67.2333 126.942 61.1729 126.956 52.4638C126.968 44.0049 126.712 35.2588 126.956 26.8406C127.182 19.0711 131.161 13.3212 137.712 11.9183C137.142 25.5453 137.801 39.5199 137.801 52.4642C137.802 76.8302 146.912 71.1473 147.431 83.6108ZM147.102 96.048C149.246 80.7781 130.376 84.0031 123.69 68.487C120.064 60.0768 121.631 30.4597 121.635 19.265C102.768 22.8363 105.594 56.4908 111.157 66.8785C118.75 81.0663 131.491 82.7673 139.695 87.4511C144.15 89.9912 144.68 91.2864 147.102 96.048ZM147.831 73.5734C153.628 84.5733 147.102 98.4018 154.277 99.9995L154.406 0.0404706C150.469 -0.437161 146.864 3.42901 145.584 5.51781C143.146 9.49971 143.024 12.8659 143.039 18.1154L143.131 63.0762C143.605 67.4683 146.202 70.4798 147.831 73.5734ZM166.569 83.6108C167.088 71.1473 176.195 76.8302 176.195 52.4638C176.195 39.5199 176.858 25.5453 176.288 11.9178C182.839 13.3212 186.818 19.0711 187.043 26.8401C187.288 35.2583 187.032 44.0045 187.043 52.4633C187.058 61.1724 186.662 67.2333 181.383 72.4604C178.795 75.0233 177.757 76.0912 174.087 78.0946C170.117 80.2634 169.276 81.2942 166.569 83.6108ZM166.898 96.048C164.754 80.7781 183.624 84.0031 190.31 68.487C193.936 60.0768 192.369 30.4597 192.365 19.265C211.232 22.8363 208.406 56.4908 202.843 66.8785C195.25 81.0663 182.509 82.7673 174.303 87.4511C169.85 89.9912 169.32 91.2864 166.898 96.048Z" fill="white"></path></svg> 