<svg xmlns="http://www.w3.org/2000/svg" width="100" height="100" viewBox="0 0 100 100" role="img" aria-label="Pillarweb">
  <rect width="100" height="100" rx="22" fill="#14150d"/>
  <g transform="translate(-41.346 20.909) scale(0.58182)">
    <path fill-rule="evenodd" clip-rule="evenodd" fill="#ffffff" d="M166.169 73.5734C167.798 70.4798 170.395 67.4683 170.869 63.0767L170.958 18.1158C170.976 12.8664 170.853 9.50015 168.417 5.51825C167.135 3.429 163.531 -0.437172 159.594 0.040907L159.724 100C166.898 98.4018 160.372 84.5733 166.169 73.5734ZM147.431 83.6108C144.723 81.2942 143.883 80.2634 139.913 78.0951C136.242 76.0916 135.205 75.0237 132.616 72.4609C127.337 67.2333 126.942 61.1729 126.956 52.4638C126.968 44.0049 126.712 35.2588 126.956 26.8406C127.182 19.0711 131.161 13.3212 137.712 11.9183C137.142 25.5453 137.801 39.5199 137.801 52.4642C137.802 76.8302 146.912 71.1473 147.431 83.6108ZM147.102 96.048C149.246 80.7781 130.376 84.0031 123.69 68.487C120.064 60.0768 121.631 30.4597 121.635 19.265C102.768 22.8363 105.594 56.4908 111.157 66.8785C118.75 81.0663 131.491 82.7673 139.695 87.4511C144.15 89.9912 144.68 91.2864 147.102 96.048ZM147.831 73.5734C153.628 84.5733 147.102 98.4018 154.277 99.9995L154.406 0.0404706C150.469 -0.437161 146.864 3.42901 145.584 5.51781C143.146 9.49971 143.024 12.8659 143.039 18.1154L143.131 63.0762C143.605 67.4683 146.202 70.4798 147.831 73.5734ZM166.569 83.6108C167.088 71.1473 176.195 76.8302 176.195 52.4638C176.195 39.5199 176.858 25.5453 176.288 11.9178C182.839 13.3212 186.818 19.0711 187.043 26.8401C187.288 35.2583 187.032 44.0045 187.043 52.4633C187.058 61.1724 186.662 67.2333 181.383 72.4604C178.795 75.0233 177.757 76.0912 174.087 78.0946C170.117 80.2634 169.276 81.2942 166.569 83.6108ZM166.898 96.048C164.754 80.7781 183.624 84.0031 190.31 68.487C193.936 60.0768 192.369 30.4597 192.365 19.265C211.232 22.8363 208.406 56.4908 202.843 66.8785C195.25 81.0663 182.509 82.7673 174.303 87.4511C169.85 89.9912 169.32 91.2864 166.898 96.048Z"/>
  </g>
</svg>
